<svg xmlns="http://www.w3.org/2000/svg" width="155.722" height="61.386" viewBox="0 0 155.722 61.386">
  <g id="Logo_Thera" data-name="Logo Thera" transform="translate(-371.746 -522.399)">
    <path id="Caminho_3" data-name="Caminho 3" d="M417.861,522.4H377.895a6.149,6.149,0,0,0-6.149,6.149v33.2a6.149,6.149,0,0,0,6.149,6.149h39.966a6.149,6.149,0,0,0,6.149-6.149v-33.2A6.149,6.149,0,0,0,417.861,522.4Zm-38.121,6.149h36.277a1.845,1.845,0,0,1,1.845,1.845V539.8c-.043,0-.085-.012-.128-.012h-9.139a6.149,6.149,0,0,0-6.149,6.149v15.742c0,.023.006.045.006.068h-9.2c0-.047.015-.091.015-.139V545.764a6.149,6.149,0,0,0-6.149-6.149h-9.223v-9.223A1.844,1.844,0,0,1,379.739,528.548Zm-1.845,15.979c.028,0,.055.008.084.008H386.5a1.844,1.844,0,0,1,1.845,1.845v15.127c0,.083.015.163.022.244H377.895Zm29.47,17.224V546.555a1.845,1.845,0,0,1,1.845-1.845h8.63l.022,0V561.75Z" transform="translate(0 0)" fill="#fccd2a"/>
    <g id="Grupo_79" data-name="Grupo 79" transform="translate(432.645 523.883)">
      <path id="Caminho_4" data-name="Caminho 4" d="M535.407,526.388H548.4V529.9h-4.561V570.65h-3.871V529.9h-4.561Z" transform="translate(-535.407 -526.388)" fill="#fff"/>
      <path id="Caminho_5" data-name="Caminho 5" d="M591.745,526.388h3.691v15.3a5.294,5.294,0,0,1,1.906-1.966,5.162,5.162,0,0,1,2.656-.675,3.59,3.59,0,0,1,3.316,1.575q.974,1.576.975,5.506V570.65H600.6V546.913a8.125,8.125,0,0,0-.585-3.676,2.407,2.407,0,0,0-3.976.03,7.961,7.961,0,0,0-.6,3.646V570.65h-3.691Z" transform="translate(-570.781 -526.388)" fill="#fff"/>
      <path id="Caminho_6" data-name="Caminho 6" d="M665.223,569.212v9.153h-8.732v6.512a8.784,8.784,0,0,0,.54,3.751,2,2,0,0,0,1.921.99,1.928,1.928,0,0,0,1.86-1.02,8.809,8.809,0,0,0,.54-3.721v-3.421h3.871v2.521q0,5.1-1.38,6.947t-4.891,1.845q-3.482,0-4.876-1.876t-1.4-6.977v-14.7q0-5.132,1.366-6.962t4.906-1.83q3.481,0,4.876,1.875T665.223,569.212Zm-3.871-.93a8.682,8.682,0,0,0-.54-3.721,1.941,1.941,0,0,0-1.86-.991,1.975,1.975,0,0,0-1.905,1.05,8.513,8.513,0,0,0-.555,3.661v6.962h4.861Z" transform="translate(-609.042 -547.756)" fill="#fff"/>
      <path id="Caminho_7" data-name="Caminho 7" d="M722.286,560.48v3.751h-.63a4.165,4.165,0,0,0-3.361,1.186,6.48,6.48,0,0,0-.991,4.1v22.507h-3.691V561.17h3.451l.24,1.891a5.847,5.847,0,0,1,1.906-1.951,4.593,4.593,0,0,1,2.446-.69,2.5,2.5,0,0,1,.3.03A2.4,2.4,0,0,0,722.286,560.48Z" transform="translate(-647.302 -547.756)" fill="#fff"/>
      <path id="Caminho_8" data-name="Caminho 8" d="M767.656,568.372v23.647h-3.451l-.24-1.891a5.294,5.294,0,0,1-1.905,1.966,5.163,5.163,0,0,1-2.656.676,3.589,3.589,0,0,1-3.316-1.576q-.976-1.575-.975-5.507v-6.151q0-3.631,1.966-5.161t6.887-1.711v-4.381a8.893,8.893,0,0,0-.525-3.751,1.95,1.95,0,0,0-1.875-.96,2.009,2.009,0,0,0-1.846.886,6.071,6.071,0,0,0-.555,3.045v1.711h-3.691v-.84q0-4.621,1.35-6.286t4.8-1.666q3.361,0,4.7,1.68T767.656,568.372Zm-3.721,7.292q-2.88.121-3.916,1.02a4.149,4.149,0,0,0-1.035,3.241v4.952a8.779,8.779,0,0,0,.54,3.751,2,2,0,0,0,1.92.99,2.034,2.034,0,0,0,1.936-1.065,8.239,8.239,0,0,0,.585-3.676Z" transform="translate(-673.359 -547.756)" fill="#fff"/>
    </g>
    <g id="Grupo_80" data-name="Grupo 80" transform="translate(373.1 573.393)">
      <path id="Caminho_9" data-name="Caminho 9" d="M378.224,672.35a.931.931,0,0,0-.794-.6.706.706,0,0,0-.719.645c0,.533.669.732,1.351,1.017a1.775,1.775,0,0,1,1.352,1.674,1.907,1.907,0,0,1-1.972,1.9,2.1,2.1,0,0,1-2.059-1.476l.88-.372c.248.546.533.93,1.19.93a.887.887,0,0,0,.943-.893c0-1.3-2.629-.856-2.629-2.691a1.661,1.661,0,0,1,1.736-1.649,1.761,1.761,0,0,1,1.55,1.079Z" transform="translate(-375.384 -666.596)" fill="#fff"/>
      <path id="Caminho_10" data-name="Caminho 10" d="M425.369,673.925a3.063,3.063,0,1,1,3.063,3.063A3.059,3.059,0,0,1,425.369,673.925Zm.992-.012a2.073,2.073,0,1,0,2.071-2.158A2.064,2.064,0,0,0,426.361,673.912Z" transform="translate(-406.769 -666.596)" fill="#fff"/>
      <path id="Caminho_11" data-name="Caminho 11" d="M483.212,669.67h-.992V659.439h.992Z" transform="translate(-442.466 -659.439)" fill="#fff"/>
      <path id="Caminho_12" data-name="Caminho 12" d="M527.432,674.519c0,.98.112,1.823,1.315,1.823s1.314-.843,1.314-1.823V671.27h.992v3.36c0,1.55-.583,2.629-2.306,2.629s-2.307-1.079-2.307-2.629v-3.36h.992Z" transform="translate(-470.231 -666.868)" fill="#fff"/>
      <path id="Caminho_13" data-name="Caminho 13" d="M580.592,673.562H579.6v-4.911h-.608v-.918h.608v-2.1h.992v2.1h1.042v.918h-1.042Z" transform="translate(-503.228 -663.331)" fill="#fff"/>
      <path id="Caminho_14" data-name="Caminho 14" d="M626.626,664.179a.707.707,0,1,1-1.414,0,.707.707,0,0,1,1.414,0Zm-.211,8.024h-.992v-5.828h.992Z" transform="translate(-532.249 -661.971)" fill="#fff"/>
      <path id="Caminho_15" data-name="Caminho 15" d="M669.4,673.925a3.063,3.063,0,1,1,3.063,3.063A3.059,3.059,0,0,1,669.4,673.925Zm.992-.012a2.072,2.072,0,1,0,2.071-2.158A2.064,2.064,0,0,0,670.391,673.912Z" transform="translate(-559.994 -666.596)" fill="#fff"/>
      <path id="Caminho_16" data-name="Caminho 16" d="M727.308,671.705h.025a1.955,1.955,0,0,1,1.662-.868c1.612,0,1.984,1.166,1.984,2.53v3.46h-.992V673.54c0-.943-.075-1.786-1.228-1.786-1.364,0-1.451,1.265-1.451,2.306v2.766h-.992V671h.992Z" transform="translate(-595.732 -666.596)" fill="#fff"/>
      <path id="Caminho_17" data-name="Caminho 17" d="M782.241,672.35a.93.93,0,0,0-.794-.6.707.707,0,0,0-.719.645c0,.533.67.732,1.352,1.017a1.775,1.775,0,0,1,1.351,1.674,1.906,1.906,0,0,1-1.971,1.9,2.1,2.1,0,0,1-2.059-1.476l.881-.372c.248.546.533.93,1.19.93a.887.887,0,0,0,.943-.893c0-1.3-2.629-.856-2.629-2.691a1.661,1.661,0,0,1,1.736-1.649,1.761,1.761,0,0,1,1.55,1.079Z" transform="translate(-629.063 -666.596)" fill="#fff"/>
    </g>
  </g>
</svg>
