<svg xmlns="http://www.w3.org/2000/svg" width="25.513" height="25.513" viewBox="0 0 25.513 25.513">
  <path id="senha" d="M189.578,63.1a8.8,8.8,0,0,1-1.636-.153l-1.2,1.346a1.363,1.363,0,0,1-.894.4H184v1.993a1.2,1.2,0,0,1-1.2,1.2h-1.993v1.993a1.2,1.2,0,0,1-1.2,1.2h-5.581a1.2,1.2,0,0,1-1.2-1.2v-3.89a1.2,1.2,0,0,1,.35-.846l8.063-8.063a8.771,8.771,0,1,1,8.33,6.021Zm2.392-8.77a2.392,2.392,0,1,0-2.392-2.392A2.392,2.392,0,0,0,191.97,54.326Z" transform="translate(-172.835 -45.556)" fill="#fccd2a"/>
</svg>
