<svg xmlns="http://www.w3.org/2000/svg" width="28.157" height="28.157" viewBox="0 0 28.157 28.157">
  <path id="usuario" d="M118.52,60.964a14.078,14.078,0,1,1-14.078-14.078A14.076,14.076,0,0,1,118.52,60.964Zm-2.724,0a11.354,11.354,0,1,0-20.59,6.58,7.546,7.546,0,0,1,5.966-2.946,17.131,17.131,0,0,0,3.27.545,17.037,17.037,0,0,0,3.27-.545,7.529,7.529,0,0,1,5.966,2.946A11.273,11.273,0,0,0,115.8,60.964Zm-3.968,8.606a4.906,4.906,0,0,0-3.951-2.242,11.367,11.367,0,0,1-3.434.545,11.542,11.542,0,0,1-3.435-.545,4.891,4.891,0,0,0-3.951,2.242,11.3,11.3,0,0,0,14.771,0Zm-1.936-11.785a5.45,5.45,0,1,1-5.45-5.45A5.451,5.451,0,0,1,109.891,57.785Zm-2.725,0a2.725,2.725,0,1,0-2.725,2.725A2.725,2.725,0,0,0,107.166,57.785Z" transform="translate(-90.363 -46.886)" fill="#fccd2a"/>
</svg>
